<?xml version="1.0" encoding="utf-8"?>
<!-- Generator: Adobe Illustrator 28.1.0, SVG Export Plug-In . SVG Version: 6.00 Build 0)  -->
<svg version="1.1" id="Layer_1" xmlns="http://www.w3.org/2000/svg" xmlns:xlink="http://www.w3.org/1999/xlink" x="0px" y="0px"
	 viewBox="0 0 588.8 328" style="enable-background:new 0 0 588.8 328;" xml:space="preserve">
<style type="text/css">
	.st0{fill:#A1374E;}
	.st1{fill:#DD98A5;}
	.st2{fill:#C95C71;}
	.st3{fill:#FFFFFF;}
	.st4{opacity:0.6;fill:#FFFFFF;}
	.st5{opacity:0.8;fill:#FFFFFF;}
	.st6{opacity:0.6;}
	.st7{opacity:0.8;}
</style>
<g>
	<polygon points="176.9,115.5 176.9,233.1 244.1,233.1 244.1,207.2 207.4,207.2 207.4,115.5 	"/>
	<polygon points="325.1,115.5 258.2,115.5 258.2,233.1 325.1,233.1 325.1,207.2 288.8,207.2 288.8,186.9 323.1,186.9 323.1,161.1 
		288.8,161.1 288.8,141.4 325.1,141.4 	"/>
	<path d="M429.6,233.1h32.6l-44.7-117.6h-33.4l-44.7,117.6h32.6l7-20.4h43.7L429.6,233.1z M387,189.4l13.7-39.1l13.7,39.1H387z"/>
	<g>
		<path d="M506.8,194.1h18.1c13.2,0,23.3-3.4,30.3-10.3c7-6.9,10.5-16.5,10.5-29c0-12.5-3.5-22.1-10.5-29
			c-7-6.9-17.1-10.3-30.3-10.3h-48.6v117.6h30.6V194.1z M506.8,140.2H517c11.2,0,16.8,4.9,16.8,14.7c0,9.8-5.6,14.7-16.8,14.7h-10.1
			V140.2z"/>
		<path class="st6" d="M204.4,22.8c-0.8-0.1-1.6-0.1-2.5-0.2C191.8,22,175.7,22,156.4,25c-27.9,4.4-67.2,15.9-107.4,45.5
			c7-1.7,14.7-3.2,23.1-4c11-1.1,21.9-1,32.4,0.2c5.4-2.9,10.5-5.4,15.4-7.5c17.9-7.9,33.4-12,43.3-14.1c0.8-0.2,1.6-0.3,2.4-0.5
			c0.1,0.8,0.2,1.6,0.2,2.4c0.9,9.3,1.3,23.7-1.3,39.9c-0.1,0.7-0.3,1.3-0.4,2c2.8,1.9,5.6,3.9,8.4,6c7.8-9.2,14.5-19.7,19.8-31.6
			c6.7-14.9,10-29,11.6-38.2C204.1,24.3,204.2,23.5,204.4,22.8"/>
		<path class="st7" d="M165.9,47.1c-0.1-0.8-0.2-1.6-0.2-2.4c-0.8,0.2-1.6,0.3-2.4,0.5c-9.9,2.1-25.4,6.2-43.3,14.1
			C94.1,70.7,59.1,92,28,131c6.3-3.5,13.4-6.9,21.3-9.9c10.8-4.1,21.7-6.9,32.6-8.3c3.9-3.6,7.7-6.9,11.3-9.8
			c15.2-12.3,29.2-20.2,38.2-24.8c0.8-0.4,1.5-0.7,2.2-1.1c0.3,0.7,0.6,1.5,0.8,2.2c3.2,8.7,7.4,22.6,9,38.9c0,0.2,0,0.4,0,0.6
			c3.4,1.1,6.7,2.4,10.1,3.8c5.2-10.9,8.9-22.8,11-35.6C167.2,70.8,166.7,56.3,165.9,47.1"/>
		<path d="M142.1,155.4c-16.8-2.3-33.2-1.7-48.9,1.8C74.8,161.3,57.2,169.3,41,181c-6.8,4.9-12.8,10.1-18,15.1
			c20-45.7,48.2-75.4,70.2-93.1c15.2-12.3,29.2-20.3,38.2-24.8c0.8-0.4,1.5-0.7,2.2-1.1c0.3,0.7,0.6,1.5,0.8,2.2
			c3.2,8.7,7.4,22.6,9,38.9C144.8,131.1,144.3,143.6,142.1,155.4"/>
	</g>
	<g>
		<path d="M188.5,269.9h-6.6l-1.4,3.4H177l7.1-16.4h2.5l6.9,16.4H190L188.5,269.9z M187.6,267.3l-2.3-5.9l-2.3,5.9H187.6z"/>
		<path d="M210.8,257c2.3,0,4.3,0.2,6.1,1.6c2,1.5,3.1,3.9,3.1,6.6c0,2.7-1.1,5.1-3.3,6.6c-1.9,1.4-3.7,1.6-6,1.6h-4.2V257H210.8z
			 M209.7,270.6h1c0.8,0,2.6,0,4-1.1c1.3-0.9,2-2.6,2-4.3c0-1.7-0.7-3.4-2-4.4c-1.3-1-2.9-1.1-4-1.1h-1V270.6z"/>
		<path d="M228.8,257v16.4h-3.2V257H228.8z"/>
		<path d="M243.6,264.6h7.5v0.2c0,1.1-0.1,4.5-2.4,6.8c-1.7,1.7-3.8,2.2-5.8,2.2c-2,0-4.2-0.4-5.9-2.2c-0.6-0.6-2.4-2.6-2.4-6.3
			c0-3.2,1.4-5.1,2.4-6.1c1.2-1.3,3.3-2.5,6.5-2.5c1.2,0,2.5,0.2,3.8,0.9c1.1,0.5,2.2,1.5,3.1,3l-2.8,1.5c-0.6-1.1-1.4-1.7-1.9-1.9
			c-0.7-0.3-1.5-0.5-2.3-0.5c-1.3,0-2.8,0.5-3.8,1.4c-0.9,0.9-1.6,2.5-1.6,4.3c0,2.2,0.9,3.5,1.6,4.2c0.7,0.7,1.9,1.4,3.6,1.4
			c1.1,0,2.3-0.3,3.2-1c0.6-0.5,1.3-1.3,1.5-2.5h-4.2V264.6z"/>
		<path d="M259.9,257v16.4h-3.2V257H259.9z"/>
		<path d="M271.4,259.7v13.6h-3.2v-13.6h-3.7V257h10.6v2.8H271.4z"/>
		<path d="M288.5,269.9h-6.6l-1.4,3.4H277L284,257h2.5l6.9,16.4h-3.4L288.5,269.9z M287.6,267.3l-2.3-5.9l-2.3,5.9H287.6z"/>
		<path d="M301.2,257v13.6h5.1v2.8H298V257H301.2z"/>
		<path d="M322.8,263.3h6.9V257h3.2v16.4h-3.2v-7.3h-6.9v7.3h-3.2V257h3.2V263.3z"/>
		<path d="M348.5,259.7h-5.9v3.7h5.7v2.8h-5.7v4.5h5.9v2.8h-9.1V257h9.1V259.7z"/>
		<path d="M364.4,269.9h-6.6l-1.4,3.4h-3.5l7.1-16.4h2.5l6.9,16.4h-3.4L364.4,269.9z M363.4,267.3l-2.3-5.9l-2.3,5.9H363.4z"/>
		<path d="M377.1,257v13.6h5.1v2.8h-8.3V257H377.1z"/>
		<path d="M391,259.7v13.6h-3.2v-13.6h-3.7V257h10.6v2.8H391z"/>
		<path d="M402.6,263.3h6.9V257h3.2v16.4h-3.2v-7.3h-6.9v7.3h-3.2V257h3.2V263.3z"/>
		<path d="M430.8,263.3h6.9V257h3.2v16.4h-3.2v-7.3h-6.9v7.3h-3.2V257h3.2V263.3z"/>
		<path d="M450.6,257v10.3c0,1.3,0.4,2,0.8,2.4c0.5,0.6,1.3,1.1,2.6,1.1s2.1-0.6,2.6-1.1c0.4-0.4,0.8-1.2,0.8-2.4V257h3.2v10
			c0,1.5-0.2,3.1-1.2,4.4c-1.2,1.5-3.2,2.4-5.4,2.4s-4.2-0.8-5.4-2.4c-1-1.3-1.2-2.8-1.2-4.4v-10H450.6z"/>
		<path d="M471.1,257c0.9,0,2.7,0,4,1c1,0.7,1.5,2,1.5,3.4c0,2.1-1.4,3-1.8,3.2c1.1,0.2,1.7,0.6,2.1,1c1,0.9,1.2,2.2,1.2,3.1
			c0,1-0.3,2.3-1.4,3.3c-1.2,1.1-2.7,1.3-4.2,1.3H467V257H471.1z M470.2,263.8h0.9c0.5,0,2.5,0,2.5-2.1c0-1.5-1.2-2.1-2.5-2.1h-0.9
			V263.8z M470.2,270.8h1.4c0.6,0,1.5,0,2.2-0.4c0.8-0.5,1-1.3,1-1.9c0-0.5-0.2-1.4-1.2-1.9c-0.7-0.3-1.5-0.3-2.2-0.3h-1.2V270.8z"
			/>
		<path d="M500.8,259.7h-5.5v3.7h5.2v2.8h-5.2v7.2h-3.2V257h8.7V259.7z"/>
		<path d="M522.8,265.2c0,5-3.6,8.6-8.7,8.6c-5.2,0-8.7-3.6-8.7-8.6c0-5,3.6-8.6,8.7-8.6C519.2,256.6,522.8,260.2,522.8,265.2z
			 M519.5,265.2c0-3.3-2.3-5.7-5.5-5.7c-3.2,0-5.5,2.4-5.5,5.7c0,3.3,2.3,5.7,5.5,5.7C517.2,270.8,519.5,268.5,519.5,265.2z"/>
		<path d="M533.2,257c2.3,0,3.4,0.6,4.2,1.2c1.3,1.1,1.6,2.5,1.6,3.7c0,1.6-0.6,3-1.9,3.9c-0.4,0.3-1,0.6-1.8,0.7l5.1,6.9h-4
			l-4.4-6.6h-0.4v6.6h-3.2V257H533.2z M531.7,264.5h0.9c0.6,0,3.1-0.1,3.1-2.5c0-2.4-2.5-2.5-3.1-2.5h-1V264.5z"/>
		<path d="M184,289.2v13.6h-3.2v-13.6h-3.7v-2.8h10.6v2.8H184z"/>
		<path d="M195.5,292.8h6.9v-6.3h3.2v16.4h-3.2v-7.3h-6.9v7.3h-3.2v-16.4h3.2V292.8z"/>
		<path d="M221.3,289.2h-5.9v3.7h5.7v2.8h-5.7v4.5h5.9v2.8h-9.1v-16.4h9.1V289.2z"/>
		<path d="M243.6,290.2c-1-1.3-2.1-1.4-2.7-1.4c-1.7,0-2.3,1.1-2.3,1.9c0,0.4,0.1,0.8,0.5,1.1c0.4,0.4,0.9,0.6,2,0.9
			c1.3,0.4,2.5,0.9,3.3,1.6c0.7,0.7,1.4,1.8,1.4,3.4c0,3.2-2.3,5.4-5.7,5.4c-3,0-4.8-1.8-5.7-3.1l2.1-2c0.8,1.6,2.3,2.2,3.4,2.2
			c1.4,0,2.5-0.9,2.5-2.3c0-0.6-0.2-1.1-0.6-1.5c-0.6-0.6-1.6-0.9-2.5-1.2c-0.9-0.3-1.9-0.7-2.7-1.4c-0.5-0.5-1.3-1.4-1.3-3
			c0-2.4,1.6-4.8,5.3-4.8c1,0,3,0.2,4.6,1.9L243.6,290.2z"/>
		<path d="M267.9,294.7c0,5-3.6,8.6-8.7,8.6c-5.2,0-8.7-3.6-8.7-8.6c0-5,3.6-8.6,8.7-8.6C264.3,286.1,267.9,289.7,267.9,294.7z
			 M264.6,294.7c0-3.3-2.3-5.7-5.5-5.7c-3.2,0-5.5,2.4-5.5,5.7s2.3,5.7,5.5,5.7C262.3,300.3,264.6,298,264.6,294.7z"/>
		<path d="M276.6,286.5v10.3c0,1.3,0.4,2,0.8,2.4c0.5,0.6,1.3,1.1,2.6,1.1c1.3,0,2.1-0.6,2.6-1.1c0.4-0.4,0.8-1.2,0.8-2.4v-10.3h3.2
			v10c0,1.5-0.2,3.1-1.2,4.4c-1.2,1.5-3.2,2.4-5.4,2.4c-2.1,0-4.2-0.8-5.4-2.4c-1-1.3-1.2-2.8-1.2-4.4v-10H276.6z"/>
		<path d="M298.2,289.2v13.6H295v-13.6h-3.7v-2.8h10.6v2.8H298.2z"/>
		<path d="M309.7,292.8h6.9v-6.3h3.2v16.4h-3.2v-7.3h-6.9v7.3h-3.2v-16.4h3.2V292.8z"/>
		<path d="M341,302.9h-2.4l-5.7-16.4h3.4l3.7,11.2l4-11.3h1.8l3.8,11.3l3.9-11.2h3.4l-6.1,16.4h-2.4l-3.6-10.4L341,302.9z"/>
		<path d="M370.6,289.2h-5.9v3.7h5.7v2.8h-5.7v4.5h5.9v2.8h-9.1v-16.4h9.1V289.2z"/>
		<path d="M384.4,290.2c-1-1.3-2.1-1.4-2.7-1.4c-1.7,0-2.3,1.1-2.3,1.9c0,0.4,0.1,0.8,0.5,1.1c0.4,0.4,0.9,0.6,2,0.9
			c1.3,0.4,2.5,0.9,3.3,1.6c0.7,0.7,1.4,1.8,1.4,3.4c0,3.2-2.3,5.4-5.7,5.4c-3,0-4.8-1.8-5.7-3.1l2.1-2c0.8,1.6,2.3,2.2,3.4,2.2
			c1.4,0,2.5-0.9,2.5-2.3c0-0.6-0.2-1.1-0.6-1.5c-0.6-0.6-1.6-0.9-2.5-1.2c-0.9-0.3-1.9-0.7-2.7-1.4c-0.5-0.5-1.3-1.4-1.3-3
			c0-2.4,1.6-4.8,5.3-4.8c1,0,3,0.2,4.6,1.9L384.4,290.2z"/>
		<path d="M397.4,289.2v13.6h-3.2v-13.6h-3.7v-2.8h10.6v2.8H397.4z"/>
		<path d="M424,299.4h-6.6l-1.4,3.4h-3.5l7.1-16.4h2.5l6.9,16.4h-3.4L424,299.4z M423,296.8l-2.3-5.9l-2.3,5.9H423z"/>
		<path d="M433.5,302.9v-16.4h2.2l10,10.9v-10.9h3.2v16.4h-2.2l-10-11v11H433.5z"/>
		<path d="M459.6,286.5c2.3,0,4.3,0.2,6.1,1.6c2,1.5,3.1,3.9,3.1,6.6c0,2.7-1.1,5.1-3.3,6.6c-1.9,1.4-3.7,1.6-6,1.6h-4.2v-16.4
			H459.6z M458.6,300.1h1c0.8,0,2.6,0,4-1.1c1.3-0.9,2-2.6,2-4.3c0-1.7-0.7-3.4-2-4.4c-1.3-1-2.9-1.1-4-1.1h-1V300.1z"/>
		<path d="M489.3,302.9h-2.4l-5.7-16.4h3.4l3.7,11.2l4-11.3h1.8l3.8,11.3l3.9-11.2h3.4l-6.1,16.4h-2.4l-3.6-10.4L489.3,302.9z"/>
		<path d="M518.1,299.4h-6.6l-1.4,3.4h-3.5l7.1-16.4h2.5l6.9,16.4h-3.4L518.1,299.4z M517.2,296.8l-2.3-5.9l-2.3,5.9H517.2z"/>
		<path d="M530.8,286.5v13.6h5.1v2.8h-8.3v-16.4H530.8z"/>
		<path d="M549.7,289.2h-5.9v3.7h5.7v2.8h-5.7v4.5h5.9v2.8h-9.1v-16.4h9.1V289.2z"/>
		<path d="M563.5,290.2c-1-1.3-2.1-1.4-2.7-1.4c-1.7,0-2.3,1.1-2.3,1.9c0,0.4,0.1,0.8,0.5,1.1c0.4,0.4,0.9,0.6,2,0.9
			c1.3,0.4,2.5,0.9,3.3,1.6c0.7,0.7,1.4,1.8,1.4,3.4c0,3.2-2.3,5.4-5.7,5.4c-3,0-4.8-1.8-5.7-3.1l2.1-2c0.8,1.6,2.3,2.2,3.4,2.2
			c1.4,0,2.5-0.9,2.5-2.3c0-0.6-0.2-1.1-0.6-1.5c-0.6-0.6-1.6-0.9-2.5-1.2c-0.9-0.3-1.9-0.7-2.7-1.4c-0.5-0.5-1.3-1.4-1.3-3
			c0-2.4,1.6-4.8,5.3-4.8c1,0,3,0.2,4.6,1.9L563.5,290.2z"/>
	</g>
</g>
</svg>
